<svg xmlns="http://www.w3.org/2000/svg" version="1.1" xmlns:xlink="http://www.w3.org/1999/xlink" xmlns:svgjs="http://svgjs.dev/svgjs" width="2000" height="712" viewBox="0 0 2000 712"><g transform="matrix(1,0,0,1,-1.2121113649768631,0.18914123511370917)"><svg viewBox="0 0 396 141" data-background-color="#fce44d" preserveAspectRatio="xMidYMid meet" height="712" width="2000" xmlns="http://www.w3.org/2000/svg" xmlns:xlink="http://www.w3.org/1999/xlink"><g id="tight-bounds" transform="matrix(1,0,0,1,0.2399980502654273,-0.03745634009976584)"><svg viewBox="0 0 395.5199999999999 141.07491268019956" height="141.07491268019956" width="395.5199999999999"><g><svg viewBox="0 0 685.2918755750472 244.43135999999998" height="141.07491268019956" width="395.5199999999999"><g transform="matrix(1,0,0,1,289.77187557504726,83.80388415879017)"><svg viewBox="0 0 395.52 76.82359168241965" height="76.82359168241965" width="395.52"><g><svg viewBox="0 0 395.52 76.82359168241965" height="76.82359168241965" width="395.52"><g><svg viewBox="0 0 395.52 76.82359168241965" height="76.82359168241965" width="395.52"><g transform="matrix(1,0,0,1,0,0)"><svg width="395.52" viewBox="1.2000000476837158 -40.75 211.58999633789062 41.099998474121094" height="76.82359168241965" data-palette-color="#374151"><g class="undefined-text-0" data-fill-palette-color="primary" id="text-0"><path d="M1.2-14.05Q1.2-18.4 2.78-21.65 4.35-24.9 7.08-26.65 9.8-28.4 13.15-28.4L13.15-28.4Q16.05-28.4 18.15-27.25 20.25-26.1 21.4-24.15L21.4-24.15 21.4-28.05 31.2-28.05 31.2 0 21.4 0 21.4-3.9Q20.25-1.95 18.13-0.8 16 0.35 13.15 0.35L13.15 0.35Q9.8 0.35 7.08-1.4 4.35-3.15 2.78-6.43 1.2-9.7 1.2-14.05L1.2-14.05ZM21.4-14.05Q21.4-16.75 19.93-18.3 18.45-19.85 16.3-19.85L16.3-19.85Q14.1-19.85 12.65-18.32 11.2-16.8 11.2-14.05L11.2-14.05Q11.2-11.35 12.65-9.78 14.1-8.2 16.3-8.2L16.3-8.2Q18.45-8.2 19.93-9.75 21.4-11.3 21.4-14.05L21.4-14.05ZM73.45-28.3Q78.75-28.3 81.77-25.1 84.8-21.9 84.8-16.35L84.8-16.35 84.8 0 75 0 75-15.05Q75-17.3 73.75-18.55 72.5-19.8 70.35-19.8L70.35-19.8Q68.2-19.8 66.95-18.55 65.7-17.3 65.7-15.05L65.7-15.05 65.7 0 55.9 0 55.9-15.05Q55.9-17.3 54.67-18.55 53.45-19.8 51.3-19.8L51.3-19.8Q49.1-19.8 47.85-18.55 46.6-17.3 46.6-15.05L46.6-15.05 46.6 0 36.8 0 36.8-28.05 46.6-28.05 46.6-24.35Q47.9-26.15 49.97-27.23 52.05-28.3 54.75-28.3L54.75-28.3Q57.85-28.3 60.27-26.95 62.7-25.6 64.1-23.15L64.1-23.15Q65.6-25.45 68.05-26.88 70.5-28.3 73.45-28.3L73.45-28.3ZM95.09-30.65Q92.5-30.65 90.92-32.08 89.34-33.5 89.34-35.65L89.34-35.65Q89.34-37.85 90.92-39.3 92.5-40.75 95.09-40.75L95.09-40.75Q97.64-40.75 99.22-39.3 100.8-37.85 100.8-35.65L100.8-35.65Q100.8-33.5 99.22-32.08 97.64-30.65 95.09-30.65L95.09-30.65ZM90.14-28.05L99.94-28.05 99.94 0 90.14 0 90.14-28.05ZM133.39-23.5Q133.39-20.3 131.92-17.68 130.44-15.05 127.47-13.48 124.49-11.9 120.19-11.9L120.19-11.9 115.34-11.9 115.34 0 105.54 0 105.54-35.25 120.19-35.25Q124.44-35.25 127.42-33.75 130.39-32.25 131.89-29.6 133.39-26.95 133.39-23.5L133.39-23.5ZM119.24-19.7Q123.39-19.7 123.39-23.5L123.39-23.5Q123.39-27.35 119.24-27.35L119.24-27.35 115.34-27.35 115.34-19.7 119.24-19.7ZM164.14-14.35Q164.14-13.2 163.99-12.05L163.99-12.05 145.44-12.05Q145.59-9.75 146.72-8.63 147.84-7.5 149.59-7.5L149.59-7.5Q152.04-7.5 153.09-9.7L153.09-9.7 163.54-9.7Q162.89-6.8 161.02-4.53 159.14-2.25 156.29-0.95 153.44 0.35 149.99 0.35L149.99 0.35Q145.84 0.35 142.62-1.4 139.39-3.15 137.57-6.4 135.74-9.65 135.74-14.05L135.74-14.05Q135.74-18.45 137.54-21.68 139.34-24.9 142.57-26.65 145.79-28.4 149.99-28.4L149.99-28.4Q154.14-28.4 157.34-26.7 160.54-25 162.34-21.83 164.14-18.65 164.14-14.35L164.14-14.35ZM145.49-16.8L154.14-16.8Q154.14-18.6 152.94-19.63 151.74-20.65 149.94-20.65L149.94-20.65Q148.14-20.65 146.99-19.68 145.84-18.7 145.49-16.8L145.49-16.8ZM181.84-8.35L184.69-8.35 184.69 0 180.44 0Q169.69 0 169.69-10.65L169.69-10.65 169.69-19.9 166.24-19.9 166.24-28.05 169.69-28.05 169.69-34.85 179.54-34.85 179.54-28.05 184.64-28.05 184.64-19.9 179.54-19.9 179.54-10.5Q179.54-9.35 180.06-8.85 180.59-8.35 181.84-8.35L181.84-8.35ZM201.14 0.35Q197.34 0.35 194.36-0.93 191.39-2.2 189.66-4.42 187.94-6.65 187.74-9.45L187.74-9.45 197.24-9.45Q197.44-8.1 198.49-7.35 199.54-6.6 201.09-6.6L201.09-6.6Q202.29-6.6 202.99-7.1 203.69-7.6 203.69-8.4L203.69-8.4Q203.69-9.45 202.54-9.95 201.39-10.45 198.74-11.05L198.74-11.05Q195.74-11.65 193.74-12.4 191.74-13.15 190.26-14.85 188.79-16.55 188.79-19.45L188.79-19.45Q188.79-21.95 190.14-23.98 191.49-26 194.11-27.2 196.74-28.4 200.44-28.4L200.44-28.4Q205.94-28.4 209.09-25.7 212.24-23 212.74-18.6L212.74-18.6 203.89-18.6Q203.64-19.95 202.71-20.68 201.79-21.4 200.24-21.4L200.24-21.4Q199.04-21.4 198.41-20.95 197.79-20.5 197.79-19.7L197.79-19.7Q197.79-18.7 198.94-18.18 200.09-17.65 202.64-17.1L202.64-17.1Q205.69-16.45 207.71-15.65 209.74-14.85 211.26-13.08 212.79-11.3 212.79-8.25L212.79-8.25Q212.79-5.8 211.36-3.85 209.94-1.9 207.31-0.78 204.69 0.35 201.14 0.35L201.14 0.35Z" fill="#374151" data-fill-palette-color="primary"></path></g></svg></g></svg></g></svg></g></svg></g><g><svg viewBox="0 0 244.43135999999998 244.43135999999998" height="244.43135999999998" width="244.43135999999998"><g><svg viewBox="0 0 244.43135999999998 244.43135999999998" height="244.43135999999998" width="244.43135999999998"><g transform="matrix(1,0,0,1,64.60265593644993,67.75001500450401)"><svg viewBox="0 0 115.22604812710013 108.93132999099198" height="108.93132999099198" width="115.22604812710013"><g><svg xmlns="http://www.w3.org/2000/svg" xmlns:xlink="http://www.w3.org/1999/xlink" version="1.1" x="0" y="0" viewBox="2.522716522216797 5.008135795593262 90.95254516601562 85.98387145996094" enable-background="new 0 0 96 96" xml:space="preserve" height="108.93132999099198" width="115.22604812710013" class="icon-s-0" data-fill-palette-color="accent" id="s-0"><path d="M48 38.124c-19.46 0-34 20.063-34 38 0 5.724 1.448 9.655 4.428 12.032 3.152 2.516 7.552 2.836 11.032 2.836 2.504 0 5.236-0.192 8.132-0.4 6.672-0.46 14.152-0.46 20.816 0 2.9 0.208 5.624 0.4 8.132 0.4 7.64 0 15.46-1.764 15.46-14.868C82 58.188 67.46 38.124 48 38.124z" fill="#000000" data-fill-palette-color="accent"></path><path d="M20.152 49.229c2.312-0.944 4.072-2.82 4.96-5.272 1.168-3.24 0.752-7.148-1.14-10.728-3.3-6.22-10.548-9.688-15.832-7.516-2.312 0.944-4.072 2.824-4.96 5.28-1.176 3.236-0.76 7.144 1.136 10.728 2.6 4.912 7.524 8.204 12.252 8.204C17.828 49.92 19.028 49.688 20.152 49.229z" fill="#000000" data-fill-palette-color="accent"></path><path d="M38.884 37.488c0.504 0 1.012-0.052 1.52-0.152 5.96-1.22 9.552-9.204 8.18-18.176-1.36-8.956-7.316-15.22-13.288-14-5.956 1.216-9.548 9.196-8.176 18.172C28.368 31.536 33.32 37.488 38.884 37.488z" fill="#000000" data-fill-palette-color="accent"></path><path d="M92.82 30.992c-0.885-2.452-2.648-4.336-4.961-5.28-5.291-2.18-12.539 1.296-15.827 7.516-1.9 3.584-2.308 7.492-1.136 10.728 0.888 2.452 2.647 4.328 4.955 5.272 1.116 0.455 2.328 0.695 3.584 0.695l0 0c4.729 0 9.648-3.296 12.244-8.204C93.58 38.14 93.992 34.236 92.82 30.992z" fill="#000000" data-fill-palette-color="accent"></path><path d="M59.584 37.336c0.508 0.1 1.016 0.152 1.52 0.152l0 0c5.568 0 10.513-5.952 11.76-14.156 1.369-8.976-2.227-16.956-8.172-18.172-5.983-1.22-11.928 5.044-13.295 14C50.04 28.132 53.632 36.116 59.584 37.336z" fill="#000000" data-fill-palette-color="accent"></path></svg></g></svg></g><path d="M15.96 94.481C14.249 93.87 12.865 93.029 11.809 91.957 10.753 90.885 10.074 89.692 9.772 88.377 9.469 87.062 9.553 85.745 10.024 84.426V84.426C10.429 83.293 11.003 82.393 11.746 81.725 12.494 81.066 13.332 80.646 14.259 80.465V80.465L11.963 79.645 14.023 73.875 30.537 79.771 28.477 85.54 26.181 84.721C26.784 85.448 27.164 86.31 27.321 87.306 27.471 88.3 27.347 89.354 26.95 90.468V90.468C26.479 91.788 25.71 92.86 24.643 93.686 23.57 94.51 22.283 95.001 20.78 95.16 19.272 95.316 17.665 95.09 15.96 94.481ZM20.206 82.588C19.142 82.208 18.205 82.199 17.394 82.563 16.578 82.924 16.018 83.527 15.716 84.374V84.374C15.407 85.239 15.451 86.061 15.846 86.841 16.239 87.627 16.977 88.213 18.06 88.6V88.6C19.118 88.977 20.057 88.99 20.878 88.637 21.702 88.293 22.269 87.688 22.578 86.823V86.823C22.88 85.977 22.829 85.155 22.426 84.359 22.023 83.562 21.283 82.972 20.206 82.588ZM48.92 30.227C50.536 28.723 52.26 28.03 54.094 28.148 55.922 28.27 57.624 29.177 59.2 30.87V30.87L66.162 38.352 61.678 42.525 55.269 35.639C54.63 34.952 53.941 34.595 53.204 34.568 52.471 34.537 51.775 34.828 51.117 35.44V35.44C50.459 36.052 50.117 36.727 50.09 37.465 50.069 38.199 50.378 38.909 51.017 39.596V39.596L57.425 46.482 52.933 50.662 46.525 43.776C45.886 43.089 45.202 42.727 44.474 42.692 43.746 42.656 43.053 42.945 42.395 43.557V43.557C41.727 44.178 41.38 44.858 41.353 45.595 41.327 46.333 41.633 47.046 42.273 47.733V47.733L48.681 54.619 44.196 58.792 32.251 45.955 36.735 41.782 38.309 43.473C38.192 42.552 38.3 41.635 38.632 40.721 38.96 39.802 39.535 38.96 40.357 38.195V38.195C41.301 37.317 42.334 36.74 43.457 36.462 44.579 36.184 45.705 36.22 46.833 36.569V36.569C46.635 35.445 46.709 34.316 47.053 33.183 47.393 32.054 48.015 31.069 48.92 30.227ZM86.007 8.354C84.977 8.691 84.059 8.678 83.252 8.316 82.439 7.956 81.893 7.349 81.614 6.495V6.495C81.329 5.621 81.407 4.796 81.848 4.02 82.281 3.238 83.013 2.68 84.043 2.343V2.343C85.054 2.013 85.965 2.035 86.776 2.409 87.584 2.778 88.131 3.398 88.417 4.272V4.272C88.696 5.126 88.617 5.937 88.18 6.706 87.743 7.474 87.018 8.024 86.007 8.354ZM83.572 10.86L89.395 8.957 94.842 25.625 89.019 27.528ZM138.753 8.259C138.683 9.586 138.312 10.781 137.641 11.844 136.969 12.907 136 13.733 134.731 14.321 133.456 14.909 131.924 15.156 130.136 15.062V15.062L127.107 14.903 126.716 22.337 120.598 22.015 121.757 0 130.903 0.481C132.672 0.574 134.16 0.967 135.368 1.659 136.569 2.351 137.454 3.264 138.023 4.399 138.585 5.534 138.828 6.821 138.753 8.259ZM129.798 10.161C131.527 10.252 132.433 9.509 132.516 7.931V7.931C132.601 6.328 131.778 5.48 130.049 5.389V5.389L127.614 5.261 127.363 10.033ZM180.539 29.528C180.324 29.952 180.08 30.366 179.809 30.77V30.77L169.466 25.524C169.085 26.405 168.998 27.161 169.204 27.792 169.411 28.423 169.838 28.902 170.486 29.231V29.231C171.4 29.694 172.259 29.615 173.063 28.993V28.993L178.889 31.948C178.101 32.904 177.143 33.63 176.017 34.126 174.894 34.616 173.68 34.834 172.374 34.779 171.068 34.724 169.776 34.372 168.497 33.724V33.724C166.953 32.941 165.744 31.92 164.87 30.662 164.006 29.401 163.541 27.995 163.476 26.443 163.411 24.891 163.792 23.298 164.62 21.666V21.666C165.451 20.027 166.503 18.779 167.776 17.92 169.058 17.059 170.461 16.607 171.986 16.566 173.517 16.527 175.064 16.904 176.626 17.696V17.696C178.164 18.476 179.368 19.483 180.239 20.718 181.11 21.952 181.582 23.329 181.656 24.849 181.721 26.371 181.349 27.931 180.539 29.528ZM170.837 22.885L175.655 25.329C175.993 24.663 176.038 24.026 175.79 23.419 175.537 22.808 175.074 22.333 174.402 21.992V21.992C173.736 21.654 173.095 21.559 172.48 21.706 171.873 21.851 171.326 22.244 170.837 22.885ZM205.201 56.458L206.378 57.799 202.452 61.245 200.699 59.249C197.739 55.876 197.928 52.725 201.266 49.796V49.796L205.609 45.984 204.19 44.367 208.019 41.006 209.438 42.623 212.634 39.818 216.701 44.452 213.505 47.257 215.604 49.648 211.775 53.009 209.676 50.618 205.258 54.495C204.901 54.809 204.714 55.118 204.699 55.421 204.689 55.72 204.856 56.066 205.201 56.458ZM217.515 90.192C216.976 88.707 216.744 87.291 216.817 85.943 216.897 84.592 217.25 83.424 217.877 82.438 218.501 81.445 219.348 80.709 220.418 80.229V80.229L222.443 85.811C221.944 86.084 221.623 86.478 221.479 86.994 221.332 87.518 221.368 88.081 221.586 88.684V88.684C221.758 89.156 221.992 89.493 222.29 89.694 222.582 89.898 222.886 89.942 223.203 89.827V89.827C223.613 89.678 223.836 89.344 223.873 88.825 223.901 88.302 223.845 87.478 223.705 86.355V86.355C223.515 85.095 223.424 84.021 223.432 83.133 223.444 82.235 223.678 81.378 224.133 80.559 224.588 79.74 225.385 79.124 226.521 78.712V78.712C227.503 78.356 228.485 78.302 229.468 78.55 230.455 78.79 231.37 79.337 232.214 80.191 233.054 81.053 233.736 82.208 234.261 83.655V83.655C235.043 85.811 235.13 87.699 234.522 89.318 233.914 90.937 232.782 92.156 231.124 92.975V92.975L229.239 87.775C229.731 87.484 230.054 87.107 230.209 86.643 230.362 86.173 230.329 85.636 230.111 85.034V85.034C229.94 84.562 229.723 84.236 229.461 84.057 229.191 83.874 228.901 83.838 228.59 83.951V83.951C228.199 84.093 227.979 84.429 227.933 84.959 227.89 85.481 227.944 86.28 228.096 87.357V87.357C228.274 88.642 228.348 89.739 228.32 90.65 228.298 91.557 228.047 92.436 227.567 93.284 227.088 94.133 226.248 94.775 225.049 95.21V95.21C224.093 95.557 223.131 95.589 222.164 95.307 221.199 95.031 220.309 94.458 219.494 93.586 218.679 92.715 218.019 91.584 217.515 90.192ZM16.042 153.227C18.006 152.496 19.853 152.211 21.583 152.371 23.316 152.537 24.808 153.089 26.06 154.026 27.305 154.966 28.209 156.192 28.771 157.703V157.703C29.259 159.016 29.423 160.242 29.262 161.381 29.094 162.522 28.664 163.517 27.972 164.367V164.367L30.62 163.382 33.091 170.025 14.083 177.097 11.612 170.455 14.25 169.473C13.177 169.28 12.202 168.8 11.325 168.034 10.447 167.267 9.769 166.24 9.289 164.952V164.952C8.727 163.441 8.613 161.921 8.947 160.394 9.281 158.866 10.056 157.471 11.271 156.208 12.482 154.954 14.073 153.96 16.042 153.227ZM21.134 166.912C22.354 166.458 23.19 165.766 23.641 164.837 24.094 163.913 24.14 162.966 23.778 161.993V161.993C23.407 160.996 22.757 160.3 21.827 159.906 20.889 159.507 19.801 159.539 18.562 160V160C17.342 160.454 16.498 161.141 16.03 162.063 15.56 162.978 15.51 163.934 15.881 164.932V164.932C16.243 165.904 16.897 166.591 17.844 166.994 18.793 167.402 19.889 167.375 21.134 166.912ZM64.963 205.226C66.869 206.931 67.854 208.844 67.916 210.966 67.969 213.087 67.105 215.143 65.326 217.133V217.133L57.442 225.948 52.159 221.223 59.415 213.111C60.137 212.303 60.475 211.474 60.427 210.625 60.38 209.776 59.97 209.006 59.196 208.314V208.314C58.423 207.622 57.612 207.3 56.763 207.348 55.914 207.395 55.128 207.823 54.405 208.63V208.63L47.15 216.743 41.867 212.019 49.122 203.906C49.845 203.098 50.187 202.274 50.15 201.434 50.112 200.593 49.707 199.827 48.933 199.136V199.136C48.14 198.426 47.319 198.095 46.47 198.143 45.621 198.19 44.835 198.618 44.113 199.426V199.426L36.857 207.538 31.574 202.814 45.094 187.696 50.377 192.421 48.593 194.416C49.638 194.189 50.706 194.214 51.798 194.49 52.886 194.771 53.915 195.345 54.885 196.213V196.213C56.003 197.213 56.78 198.342 57.215 199.6 57.651 200.868 57.726 202.167 57.439 203.498V203.498C58.721 203.155 60.03 203.119 61.365 203.391 62.705 203.668 63.904 204.279 64.963 205.226ZM94.946 218.537C93.752 218.172 92.892 217.55 92.366 216.67 91.84 215.791 91.729 214.855 92.032 213.863V213.863C92.343 212.846 92.964 212.116 93.893 211.675 94.825 211.227 95.888 211.186 97.082 211.551V211.551C98.258 211.911 99.106 212.536 99.628 213.428 100.152 214.314 100.258 215.266 99.947 216.283V216.283C99.644 217.275 99.028 217.989 98.101 218.424 97.173 218.859 96.121 218.897 94.946 218.537ZM90.976 219.283L97.754 221.355 91.824 240.75 85.046 238.677ZM140.55 226.249C140.644 227.786 140.376 229.209 139.748 230.519 139.112 231.822 138.101 232.896 136.716 233.742 135.331 234.588 133.606 235.074 131.542 235.199V235.199L128.039 235.412 128.562 244.001 121.488 244.431 119.939 218.993 130.516 218.349C132.561 218.225 134.32 218.479 135.796 219.11 137.271 219.749 138.407 220.683 139.204 221.912 140 223.141 140.449 224.587 140.55 226.249ZM130.506 229.612C132.505 229.49 133.449 228.516 133.337 226.688V226.688C133.224 224.835 132.169 223.969 130.17 224.091V224.091L127.36 224.262 127.696 229.783ZM182.089 216.606C182.343 217.1 182.564 217.61 182.753 218.137V218.137L170.821 224.262C171.393 225.217 172.044 225.811 172.773 226.046 173.503 226.28 174.244 226.205 174.996 225.818V225.818C176.043 225.281 176.551 224.426 176.521 223.253V223.253L183.24 219.803C183.601 221.186 183.629 222.571 183.325 223.961 183.02 225.35 182.4 226.638 181.464 227.824 180.528 229.01 179.322 229.982 177.846 230.74V230.74C176.065 231.654 174.29 232.09 172.522 232.047 170.755 232.003 169.122 231.486 167.625 230.494 166.128 229.502 164.895 228.063 163.926 226.175V226.175C162.957 224.288 162.503 222.456 162.564 220.679 162.625 218.903 163.153 217.283 164.148 215.821 165.152 214.363 166.554 213.171 168.353 212.248V212.248C170.134 211.333 171.897 210.889 173.641 210.915 175.385 210.941 176.993 211.433 178.467 212.393 179.937 213.361 181.145 214.766 182.089 216.606ZM169.29 221.193L174.855 218.336C174.456 217.56 173.887 217.088 173.146 216.918 172.408 216.74 171.651 216.85 170.875 217.248V217.248C170.105 217.644 169.58 218.177 169.301 218.848 169.021 219.519 169.018 220.3 169.29 221.193ZM211.097 195.984L212.463 194.44 216.984 198.44 214.948 200.742C211.515 204.622 207.875 204.861 204.03 201.459V201.459L199.026 197.032 197.377 198.895 192.96 194.987 194.609 193.123 190.926 189.866 195.649 184.528 199.331 187.786 201.775 185.024 206.192 188.932 203.749 191.694 208.834 196.193C209.25 196.561 209.632 196.732 209.982 196.706 210.327 196.675 210.698 196.435 211.097 195.984ZM235.161 165.376C234.513 167.088 233.648 168.506 232.565 169.63 231.483 170.753 230.29 171.513 228.988 171.911 227.692 172.31 226.396 172.318 225.1 171.933V171.933L227.533 165.509C228.173 165.646 228.754 165.54 229.274 165.193 229.792 164.852 230.183 164.332 230.447 163.634V163.634C230.653 163.09 230.701 162.617 230.592 162.216 230.489 161.816 230.255 161.547 229.89 161.409V161.409C229.421 161.232 228.973 161.359 228.548 161.792 228.129 162.226 227.558 162.989 226.834 164.079V164.079C226.05 165.329 225.32 166.342 224.645 167.118 223.963 167.892 223.114 168.464 222.097 168.836 221.078 169.213 219.914 169.153 218.603 168.657V168.657C217.478 168.232 216.575 167.54 215.892 166.581 215.212 165.632 214.824 164.464 214.727 163.077 214.639 161.687 214.911 160.158 215.542 158.489V158.489C216.481 156.011 217.828 154.292 219.583 153.331 221.33 152.374 223.239 152.157 225.31 152.68V152.68L223.042 158.668C222.395 158.55 221.828 158.636 221.344 158.926 220.858 159.223 220.482 159.72 220.218 160.418V160.418C220.014 160.956 219.96 161.406 220.057 161.767 220.153 162.129 220.38 162.377 220.739 162.513V162.513C221.19 162.684 221.631 162.554 222.063 162.124 222.5 161.696 223.06 160.954 223.743 159.898V159.898C224.555 158.63 225.315 157.61 226.024 156.84 226.729 156.061 227.61 155.48 228.667 155.095 229.732 154.707 230.951 154.773 232.323 155.292V155.292C233.429 155.711 234.299 156.408 234.934 157.383 235.568 158.358 235.914 159.535 235.971 160.913 236.037 162.288 235.767 163.776 235.161 165.376ZM2.353 123.806C2.353 118.429 6.712 114.07 12.088 114.07 17.465 114.07 21.824 118.429 21.824 123.806 21.824 129.182 17.465 133.541 12.088 133.541 6.712 133.541 2.353 129.182 2.353 123.806ZM222.608 123.806C222.608 118.429 226.966 114.07 232.343 114.07 237.72 114.07 242.078 118.429 242.078 123.806 242.078 129.182 237.72 133.541 232.343 133.541 226.966 133.541 222.608 129.182 222.608 123.806Z" fill="#000000" data-fill-palette-color="accent"></path></svg></g></svg></g></svg></g><defs></defs></svg><rect width="395.5199999999999" height="141.07491268019956" fill="none" stroke="none" visibility="hidden"></rect></g></svg></g></svg>